<svg width="726" height="784" viewBox="0 0 726 784" fill="none" xmlns="http://www.w3.org/2000/svg">
<path d="M306.475 738.208C333.124 699.677 371.578 642.857 400.57 590.903C419.09 557.716 434.637 524.99 440.185 499.731C442.888 487.427 443.907 474.012 438.937 462.84C436.27 456.847 431.964 451.722 425.939 448.193C420.085 444.764 413.459 443.335 406.731 443.155C397.081 442.897 387.451 446.12 378.58 450.584C369.552 455.126 360.144 461.551 350.61 469.111C331.55 484.226 310.501 505.079 289.006 528.07C267.471 551.102 245.053 576.754 223.279 601.669L223.203 601.757C201.32 626.797 180.116 651.057 160.741 671.652C141.208 692.417 124.274 708.645 110.938 718.104C104.182 722.897 99.442 725.149 96.5366 725.883C96.4341 725.908 96.3378 725.932 96.2476 725.952C95.7718 724.841 95.0753 722.692 94.5925 718.876C93.7294 712.055 93.8157 702.001 95.4333 687.885C98.659 659.738 107.626 618.214 124.005 559.773C134.591 522.001 143.64 486.749 151.277 454.042C217.057 448.942 293.907 417.866 335.638 389.203L335.888 389.032L336.13 388.85C372.762 361.471 427.675 329.508 474.401 320.169C497.73 315.506 516.664 316.953 530.224 324.755C543.088 332.157 554.291 347.158 558.375 377.18C566.722 438.539 542.267 509.624 506.102 575.152C471.544 637.767 427.589 692.989 396.484 725.964L306.475 738.208ZM126.966 424.378C99.3192 423.396 79.3687 415.634 68.5437 401.393C56.412 385.432 51.3784 355.494 70.2488 301.134C91.0885 241.1 110.87 200.959 127.071 179.18C135.406 167.977 141.38 163.587 144.407 162.417C144.535 162.368 144.647 162.328 144.744 162.296C144.886 162.441 145.063 162.639 145.272 162.904C147.652 165.916 150.862 173.325 152.913 187.673C154.891 201.51 155.554 220.007 154.439 243.335C152.318 287.683 143.842 348.091 126.966 424.378ZM145.256 162.171C145.255 162.172 145.244 162.173 145.222 162.174C145.246 162.171 145.257 162.171 145.256 162.171ZM144.373 161.964C144.347 161.95 144.334 161.941 144.335 161.941C144.335 161.94 144.348 161.947 144.373 161.964ZM95.1029 726.132C95.1033 726.132 95.1145 726.131 95.1353 726.133C95.1129 726.133 95.1025 726.132 95.1029 726.132Z" fill="#1D2528" stroke="white" stroke-width="30.2843"/>
<path d="M216.299 123.051C212.578 119.227 208.539 115.528 204.235 112.215C220.152 100.541 234.229 82.7584 245.608 61.3726C251.791 70.9252 257.732 78.3731 264.33 85.2329C269.47 90.5783 275.021 95.5579 281.23 100.85C256.902 107.998 241.583 124.795 230.016 139.294C225.877 133.703 221.265 128.156 216.299 123.051Z" fill="#1D2528" stroke="white" stroke-width="22.7132"/>
<path d="M86.5002 102.505C81.9617 105.312 77.4775 108.455 73.3127 111.941C65.3552 93.8768 51.0362 76.2885 32.6158 60.5561C43.2793 56.5837 51.8354 52.3933 59.9592 47.4348C66.2895 43.5711 72.3512 39.2286 78.86 34.31C80.5799 59.6079 93.6684 78.1955 105.324 92.6236C98.9708 95.4567 92.5579 98.7598 86.5002 102.505Z" fill="#1D2528" stroke="white" stroke-width="22.7132"/>
<path fill-rule="evenodd" clip-rule="evenodd" d="M613.701 352.181C627.514 333.939 626.636 307.87 610.493 290.568C595.794 274.814 572.966 271.183 554.539 280.111C556.798 276.454 559.577 273.034 562.871 269.961C582.771 251.394 613.954 252.475 632.52 272.374C651.087 292.273 650.006 323.456 630.107 342.023C625.204 346.597 619.616 349.979 613.701 352.181Z" fill="white"/>
</svg>
