<svg width="1277" height="1277" viewBox="0 0 1277 1277" fill="none" xmlns="http://www.w3.org/2000/svg">
<rect width="1277" height="1277" fill="#00A884"/>
<path d="M643.95 948.465C669.291 911.796 705.374 858.374 732.664 809.47C750.303 777.861 765.156 746.616 770.464 722.449C773.047 710.691 774.06 697.725 769.23 686.868C766.634 681.033 762.435 676.032 756.557 672.59C750.851 669.248 744.414 667.867 737.919 667.693C728.562 667.443 719.268 670.568 710.767 674.845C702.11 679.201 693.108 685.352 684.007 692.568C665.812 706.996 645.738 726.887 625.261 748.789C604.744 770.732 583.389 795.168 562.656 818.892L562.579 818.98C541.737 842.829 521.554 865.922 503.114 885.524C484.515 905.294 468.43 920.703 455.793 929.666C449.653 934.022 445.331 936.119 442.658 936.872C442.257 935.77 441.741 933.9 441.361 930.9C440.549 924.485 440.625 914.975 442.163 901.559C445.228 874.811 453.755 835.311 469.35 779.668C479.378 743.886 487.96 710.476 495.209 679.461C557.883 674.469 630.889 644.911 670.606 617.631L670.855 617.46L671.098 617.278C705.951 591.228 758.143 560.864 802.485 552.001C824.622 547.577 842.449 548.981 855.145 556.287C867.146 563.192 877.73 577.241 881.599 605.684C889.516 663.883 866.319 731.408 831.901 793.77C799.089 853.222 757.367 905.673 727.791 937.059L643.95 948.465ZM470.9 649.79C444.99 648.769 426.456 641.421 416.413 628.207C405.083 613.301 400.199 585.097 418.144 533.403C437.982 476.253 456.792 438.109 472.154 417.458C479.927 407.01 485.455 402.923 488.197 401.796C488.242 401.851 488.291 401.91 488.342 401.975C490.487 404.689 493.522 411.59 495.47 425.217C497.344 438.334 497.977 455.899 496.916 478.089C494.904 520.155 486.879 577.443 470.9 649.79ZM487.624 401.215C487.624 401.214 487.633 401.22 487.651 401.233C487.632 401.222 487.623 401.215 487.624 401.215Z" fill="#00A884" stroke="white" stroke-width="30.2843"/>
<path d="M617.278 342.199C594.808 349.114 580.457 364.637 569.626 378.154C565.78 373.004 561.517 367.904 556.936 363.197C553.544 359.71 549.87 356.326 545.957 353.265C560.762 342.231 573.858 325.696 584.505 305.899C590.231 314.654 595.767 321.558 601.899 327.934C606.598 332.821 611.658 337.389 617.278 342.199Z" fill="#00A884" stroke="white" stroke-width="22.7132"/>
<path d="M425.197 280.094C427.091 303.527 439.145 320.894 450.001 334.391C444.141 337.033 438.24 340.093 432.654 343.547C428.516 346.106 424.418 348.962 420.584 352.12C413.011 335.281 399.698 318.919 382.671 304.244C392.457 300.546 400.394 296.634 407.945 292.025C413.732 288.493 419.286 284.541 425.197 280.094Z" fill="#00A884" stroke="white" stroke-width="22.7132"/>
<path fill-rule="evenodd" clip-rule="evenodd" d="M935.002 581.779C948.156 564.408 947.321 539.582 931.947 523.105C917.948 508.101 896.209 504.643 878.661 513.146C880.812 509.663 883.458 506.407 886.595 503.48C905.546 485.798 935.242 486.827 952.923 505.778C970.605 524.729 969.576 554.425 950.625 572.106C945.956 576.462 940.635 579.683 935.002 581.779Z" fill="white"/>
</svg>
