<svg width="1143" height="1143" viewBox="0 0 1143 1143" fill="none" xmlns="http://www.w3.org/2000/svg">
<circle cx="571.5" cy="571.5" r="571.5" fill="#535353"/>
<path d="M587.475 917.208C614.124 878.677 652.578 821.857 681.57 769.903C700.09 736.716 715.637 703.99 721.185 678.731C723.888 666.427 724.907 653.012 719.937 641.84C717.27 635.847 712.964 630.722 706.939 627.193C701.085 623.764 694.459 622.335 687.731 622.155C678.081 621.897 668.451 625.12 659.58 629.584C650.552 634.126 641.144 640.551 631.61 648.111C612.55 663.226 591.501 684.079 570.006 707.07C548.471 730.102 526.053 755.754 504.279 780.669L504.203 780.757C482.32 805.797 461.116 830.057 441.741 850.652C422.208 871.417 405.274 887.645 391.938 897.104C385.182 901.897 380.442 904.149 377.537 904.883C377.434 904.908 377.338 904.932 377.248 904.952C376.772 903.841 376.075 901.692 375.592 897.876C374.729 891.055 374.816 881.001 376.433 866.885C379.659 838.738 388.626 797.214 405.005 738.773C415.591 701.001 424.64 665.749 432.277 633.042C498.057 627.942 574.907 596.866 616.638 568.203L616.888 568.032L617.13 567.85C653.762 540.471 708.675 508.508 755.401 499.169C778.73 494.506 797.664 495.953 811.224 503.755C824.088 511.157 835.291 526.158 839.375 556.18C847.722 617.539 823.267 688.624 787.102 754.152C752.544 816.767 708.589 871.989 677.484 904.964L587.475 917.208ZM407.966 603.378C380.319 602.396 360.369 594.634 349.544 580.393C337.412 564.432 332.378 534.494 351.249 480.134C372.089 420.1 391.87 379.959 408.071 358.18C416.406 346.977 422.38 342.587 425.407 341.417C425.535 341.368 425.647 341.328 425.744 341.296C425.886 341.441 426.063 341.639 426.272 341.904C428.652 344.916 431.862 352.325 433.913 366.673C435.891 380.51 436.554 399.007 435.439 422.335C433.318 466.683 424.842 527.091 407.966 603.378ZM426.256 341.171C426.255 341.172 426.244 341.173 426.222 341.174C426.246 341.171 426.257 341.171 426.256 341.171ZM425.373 340.964C425.347 340.95 425.334 340.941 425.335 340.941C425.335 340.94 425.348 340.947 425.373 340.964ZM376.103 905.132C376.103 905.132 376.115 905.131 376.135 905.133C376.113 905.133 376.103 905.132 376.103 905.132Z" fill="#00A884" stroke="white" stroke-width="30.2843"/>
<path d="M497.299 302.051C493.578 298.227 489.539 294.528 485.235 291.215C501.152 279.541 515.229 261.758 526.608 240.373C532.791 249.925 538.732 257.373 545.33 264.233C550.47 269.578 556.021 274.558 562.23 279.85C537.902 286.998 522.583 303.795 511.016 318.294C506.877 312.703 502.265 307.156 497.299 302.051Z" fill="#00A884" stroke="white" stroke-width="22.7132"/>
<path d="M367.5 281.505C362.962 284.312 358.478 287.455 354.313 290.941C346.355 272.877 332.036 255.289 313.616 239.556C324.279 235.584 332.835 231.393 340.959 226.435C347.289 222.571 353.351 218.229 359.86 213.31C361.58 238.608 374.668 257.196 386.324 271.624C379.971 274.457 373.558 277.76 367.5 281.505Z" fill="#00A884" stroke="white" stroke-width="22.7132"/>
<path fill-rule="evenodd" clip-rule="evenodd" d="M894.701 531.181C908.514 512.939 907.636 486.87 891.493 469.568C876.794 453.814 853.966 450.183 835.539 459.111C837.798 455.454 840.577 452.034 843.871 448.961C863.771 430.394 894.954 431.475 913.52 451.374C932.087 471.273 931.006 502.456 911.107 521.023C906.204 525.597 900.616 528.979 894.701 531.181Z" fill="white"/>
</svg>
